<?xml version="1.0" encoding="UTF-8"?>
<svg id="Layer_1" xmlns="http://www.w3.org/2000/svg" version="1.1" xmlns:xlink="http://www.w3.org/1999/xlink" viewBox="0 0 2000 2000">
  <!-- Generator: Adobe Illustrator 30.3.0, SVG Export Plug-In . SVG Version: 2.1.3 Build 182)  -->
  <defs>
    <style>
      .st0 {
        stroke-miterlimit: 11;
        stroke-width: 10px;
      }

      .st0, .st1 {
        stroke: #000;
      }

      .st0, .st1, .st2 {
        fill: none;
      }

      .st1 {
        stroke-miterlimit: 10;
      }

      .st3 {
        clip-path: url(#clippath-1);
      }

      .st4 {
        clip-path: url(#clippath);
      }
    </style>
    <clipPath id="clippath">
      <rect class="st2" x="20.78" y="-7192.4" width="979.12" height="16383"/>
    </clipPath>
    <clipPath id="clippath-1">
      <rect class="st2" x="999.9" y="-7192.4" width="979.12" height="16383"/>
    </clipPath>
  </defs>
  <g id="_x3C_Mirror_Repeat_x3E_">
    <g class="st4">
      <path class="st1" d="M1006.45,1716.18"/>
      <path class="st0" d="M1004.33,89.33l-22.08,76.85c-3.48,6.32-3.44,32.55,1.28,38.01,4.49,5.21,3.72,18.53,3.56,23.28l-22.54,834.35c-.03.82-1.02,1.2-1.58.62-68.58-70.56-495.23-339.81-829.1-239.81-180.33,54.01-83.87,251.61-69.35,272.58,26.31,38,130.78,78.73,243.55,138.71,75.81,40.32,153.23,87.1,248.39,193.55,68.4,76.52,131.07,140.43,172.58,167.74,63.97,36.01,117.47,58.28,128.64,60.78l-261.41,47.28,360.37,1.15c.6,0,48.63,85.81,48.63,85.81"/>
    </g>
  </g>
  <g id="_x3C_Mirror_Repeat_x3E_1" data-name="_x3C_Mirror_Repeat_x3E_">
    <g class="st3">
      <path class="st1" d="M993.36,1716.18"/>
      <path class="st0" d="M995.47,89.33l22.08,76.85c3.48,6.32,3.44,32.55-1.28,38.01-4.49,5.21-3.72,18.53-3.56,23.28l22.54,834.35c.03.82,1.02,1.2,1.58.62,68.58-70.56,495.23-339.81,829.1-239.81,180.33,54.01,83.87,251.61,69.35,272.58-26.31,38-130.78,78.73-243.55,138.71-75.81,40.32-153.23,87.1-248.39,193.55-68.4,76.52-131.07,140.43-172.58,167.74-63.97,36.01-117.47,58.28-128.64,60.78l261.41,47.28-360.37,1.15c-.6,0-48.63,85.81-48.63,85.81"/>
    </g>
  </g>
</svg>